<svg version="1.0" xmlns="http://www.w3.org/2000/svg" width="512.000000pt" height="512.000000pt" viewBox="0 0 512.000000 512.000000" preserveAspectRatio="xMidYMid meet">

<g transform="translate(0.000000,512.000000) scale(0.100000,-0.100000)" fill="#21c45d" stroke="none">
<path d="M2370 5113 c-379 -36 -661 -116 -980 -278 -378 -193 -717 -497 -965 -865 -104 -156 -232 -419 -294 -605 -49 -150 -89 -321 -113 -490 -17 -118 -17 -512 0 -630 42 -295 120 -553 242 -800 137 -280 272 -468 494 -691 221 -220 412 -357 681 -489 188 -92 309 -137 500 -185 500 -126 1002 -102 1490 71 149 53 407 183 540 271 560 374 951 942 1095 1588 48 215 74 532 50 604 -16 48 -65 105 -107 122 -77 33 -178 6 -226 -58 -34 -45 -47 -98 -47 -195 0 -120 -27 -310 -66 -463 -121 -473 -407 -902 -795 -1192 -295 -220 -584 -346 -954 -413 -142 -26 -460 -31 -625 -10 -983 124 -1758 896 -1885 1878 -19 151 -19 403 0 554 115 882 756 1607 1615 1827 153 39 343 66 463 66 136 0 207 32 247 110 50 98 8 213 -95 261 -39 18 -152 23 -265 12z" fill="#21c45d"/>
<path d="M4776 4466 c-49 -18 2 31 -1306 -1273 l-1085 -1082 -345 376 c-571 622 -541 593 -632 593 -103 0 -188 -84 -188 -188 0 -30 7 -68 15 -85 13 -28 333 -381 853 -941 182 -196 220 -226 292 -226 84 0 68 -14 1371 1287 1350 1348 1288 1280 1276 1379 -13 118 -142 200 -251 160z" fill="#21c45d"/>
</g>
</svg>